<svg width="348" height="580" viewBox="0 0 348 580" fill="none" xmlns="http://www.w3.org/2000/svg">
<path d="M208.392 362.015C149.35 471.528 257.643 502.561 128.483 564.84C15.9576 619.097 14.0975 505.202 -30.4619 483.883C-75.0212 462.565 -102.489 504.656 -161.635 448.735C-220.78 392.815 -139.377 317.929 -151.023 246.953C-167.85 144.394 -173.792 121.486 -134.913 97.7992C-82.4282 65.8218 -20.1073 120.888 19.0361 108.356C58.1795 95.8239 23.0675 21.0602 113.658 3.26052C247.671 -23.0713 343.455 128.536 346.819 169.754C357.562 301.377 267.433 252.501 208.392 362.015Z" fill="url(#paint0_linear_248_69)"/>
<defs>
<linearGradient id="paint0_linear_248_69" x1="252.5" y1="50.5" x2="262.507" y2="635.316" gradientUnits="userSpaceOnUse">
<stop stop-color="#0C0910"/>
<stop offset="0.46" stop-color="#521434"/>
<stop offset="1" stop-color="#301F47"/>
</linearGradient>
</defs>
</svg>
