<svg width="20" height="21" viewBox="0 0 20 21" fill="none" xmlns="http://www.w3.org/2000/svg">
<path d="M19.6664 8.40928L19.6383 8.33452L16.9186 0.968368C16.8637 0.823041 16.7656 0.699589 16.6387 0.6158C16.5118 0.532012 16.3626 0.492214 16.2125 0.502143C16.0622 0.508926 15.9178 0.56507 15.8003 0.662483C15.6827 0.759896 15.598 0.893546 15.5583 1.04417L13.7218 6.886H6.28189L4.44241 1.04521C4.40319 0.894524 4.31891 0.760652 4.20171 0.662872C4.08451 0.565092 3.94044 0.508451 3.79025 0.501104C3.64014 0.492627 3.49124 0.533124 3.36442 0.616919C3.2376 0.700714 3.13921 0.823606 3.08306 0.968368L0.360358 8.3449L0.332351 8.41759C-0.0580399 9.48003 -0.105863 10.6453 0.196063 11.7383C0.497989 12.8314 1.13337 13.7933 2.00678 14.4795L2.01679 14.4868L2.04079 14.5065L6.18887 17.7296L8.2394 19.3422L9.48672 20.3224C9.63287 20.4376 9.81134 20.5 9.99485 20.5C10.1784 20.5 10.3568 20.4376 10.503 20.3224L11.7503 19.3422L13.8008 17.7296L17.9739 14.4868L17.9839 14.4785C18.8609 13.7935 19.4993 12.8308 19.8028 11.736C20.1063 10.6411 20.0584 9.47341 19.6664 8.40928Z" fill="#F2EFF6"/>
</svg>
