<svg width="20" height="21" viewBox="0 0 20 21" fill="none" xmlns="http://www.w3.org/2000/svg">
<path fill-rule="evenodd" clip-rule="evenodd" d="M16.6667 0.5C17.5507 0.5 18.3986 0.85119 19.0237 1.47631C19.6488 2.10143 20 2.94928 20 3.83333V17.1667C20 18.0507 19.6488 18.8986 19.0237 19.5237C18.3986 20.1488 17.5507 20.5 16.6667 20.5H3.33333C2.44928 20.5 1.60143 20.1488 0.976311 19.5237C0.35119 18.8986 0 18.0507 0 17.1667V3.83333C0 2.94928 0.35119 2.10143 0.976311 1.47631C1.60143 0.85119 2.44928 0.5 3.33333 0.5H16.6667ZM5.55556 8.27778C5.26087 8.27778 4.97826 8.39484 4.76988 8.60322C4.56151 8.81159 4.44444 9.0942 4.44444 9.38889V14.9444C4.44444 15.2391 4.56151 15.5217 4.76988 15.7301C4.97826 15.9385 5.26087 16.0556 5.55556 16.0556C5.85024 16.0556 6.13286 15.9385 6.34123 15.7301C6.5496 15.5217 6.66667 15.2391 6.66667 14.9444V9.38889C6.66667 9.0942 6.5496 8.81159 6.34123 8.60322C6.13286 8.39484 5.85024 8.27778 5.55556 8.27778ZM8.88889 7.16667C8.5942 7.16667 8.31159 7.28373 8.10322 7.4921C7.89484 7.70048 7.77778 7.98309 7.77778 8.27778V14.9444C7.77778 15.2391 7.89484 15.5217 8.10322 15.7301C8.31159 15.9385 8.5942 16.0556 8.88889 16.0556C9.18357 16.0556 9.46619 15.9385 9.67456 15.7301C9.88294 15.5217 10 15.2391 10 14.9444V10.8778C10.3389 10.4956 10.9111 10.0467 11.5478 9.77444C11.9178 9.61667 12.4744 9.55222 12.8611 9.67445C12.9894 9.70699 13.1036 9.78029 13.1867 9.88333C13.2444 9.96111 13.3333 10.1344 13.3333 10.5V14.9444C13.3333 15.2391 13.4504 15.5217 13.6588 15.7301C13.8671 15.9385 14.1498 16.0556 14.4444 16.0556C14.7391 16.0556 15.0217 15.9385 15.2301 15.7301C15.4385 15.5217 15.5556 15.2391 15.5556 14.9444V10.5C15.5556 9.75556 15.3667 9.09333 14.9733 8.56222C14.6114 8.08062 14.1048 7.72747 13.5278 7.55444C12.5256 7.24 11.4156 7.41444 10.6744 7.73222C10.4372 7.83427 10.2061 7.95002 9.98222 8.07889C9.93564 7.82288 9.80069 7.59133 9.60088 7.42463C9.40108 7.25792 9.14911 7.16663 8.88889 7.16667ZM5.55556 4.94444C5.26087 4.94444 4.97826 5.06151 4.76988 5.26988C4.56151 5.47826 4.44444 5.76087 4.44444 6.05556C4.44444 6.35024 4.56151 6.63286 4.76988 6.84123C4.97826 7.0496 5.26087 7.16667 5.55556 7.16667C5.85024 7.16667 6.13286 7.0496 6.34123 6.84123C6.5496 6.63286 6.66667 6.35024 6.66667 6.05556C6.66667 5.76087 6.5496 5.47826 6.34123 5.26988C6.13286 5.06151 5.85024 4.94444 5.55556 4.94444Z" fill="#F2EFF6"/>
</svg>
