<svg width="284" height="553" viewBox="0 0 284 553" fill="none" xmlns="http://www.w3.org/2000/svg">
<path d="M373.509 345.648C317.231 450.034 420.454 479.614 297.341 538.976C190.084 590.693 188.311 482.131 145.838 461.81C103.365 441.49 77.1832 481.611 20.8067 428.308C-35.5697 375.005 42.0221 303.626 30.9218 235.972C14.8823 138.215 9.21905 116.38 46.2769 93.8024C96.3048 63.3221 155.708 115.81 193.019 103.865C230.329 91.9196 196.861 20.6563 283.21 3.68996C410.949 -21.409 502.248 123.1 505.455 162.389C515.695 287.849 429.786 241.261 373.509 345.648Z" fill="url(#paint0_linear_78_18)"/>
<defs>
<linearGradient id="paint0_linear_78_18" x1="299.5" y1="-61.5" x2="450.279" y2="496.46" gradientUnits="userSpaceOnUse">
<stop offset="0.0443335" stop-color="#FFF2CD"/>
<stop offset="0.540976" stop-color="#DEDBFC"/>
<stop offset="1" stop-color="#FFFAF8"/>
</linearGradient>
</defs>
</svg>
