<svg width="272" height="580" viewBox="0 0 272 580" fill="none" xmlns="http://www.w3.org/2000/svg">
<path d="M392.392 362.015C333.35 471.528 441.643 502.561 312.483 564.84C199.958 619.097 198.097 505.202 153.538 483.883C108.979 462.565 81.511 504.656 22.3653 448.735C-36.7803 392.815 44.6228 317.929 32.9773 246.953C16.1498 144.394 10.2085 121.486 49.0865 97.7992C101.572 65.8218 163.893 120.888 203.036 108.356C242.179 95.8239 207.067 21.0602 297.658 3.26052C431.671 -23.0713 527.455 128.536 530.819 169.754C541.562 301.377 451.433 252.501 392.392 362.015Z" fill="url(#paint0_linear_78_17)"/>
<defs>
<linearGradient id="paint0_linear_78_17" x1="353" y1="-58" x2="423.771" y2="519.1" gradientUnits="userSpaceOnUse">
<stop offset="0.0443335" stop-color="#A892C0"/>
<stop offset="1" stop-color="#F2EFF6"/>
</linearGradient>
</defs>
</svg>
