<svg width="307" height="580" viewBox="0 0 307 580" fill="none" xmlns="http://www.w3.org/2000/svg">
<path d="M167.392 217.826C108.35 108.312 216.643 77.2791 87.4829 15.0008C-25.0424 -39.2565 -26.9025 74.6388 -71.4619 95.9574C-116.021 117.276 -143.489 75.1842 -202.635 131.105C-261.78 187.026 -180.377 261.911 -192.023 332.888C-208.85 435.447 -214.792 458.354 -175.913 482.041C-123.428 514.019 -61.1073 458.952 -21.9639 471.485C17.1795 484.017 -17.9325 558.78 72.6577 576.58C206.671 602.912 302.455 451.305 305.819 410.086C316.562 278.464 226.433 327.339 167.392 217.826Z" fill="url(#paint0_linear_78_19)"/>
<defs>
<linearGradient id="paint0_linear_78_19" x1="134.5" y1="450" x2="266.258" y2="-167.952" gradientUnits="userSpaceOnUse">
<stop offset="0.0443335" stop-color="#A892C0"/>
<stop offset="0.477355" stop-color="#F2EFF6"/>
</linearGradient>
</defs>
</svg>
